<?xml version="1.0" encoding="utf-8"?>
<!-- Generator: Adobe Illustrator 21.1.0, SVG Export Plug-In . SVG Version: 6.00 Build 0)  -->
<svg version="1.1" id="Layer" xmlns="http://www.w3.org/2000/svg" xmlns:xlink="http://www.w3.org/1999/xlink" x="0px" y="0px"
	 viewBox="0 0 98 117.6" style="enable-background:new 0 0 98 117.6;" xml:space="preserve">
<style type="text/css">
	.st0{fill:#FFFFFF;}
</style>
<path class="st0" d="M53.9,112.7V14.9l35.7,37.4c1.9,2,5,2,6.9,0.2c2-1.9,2-5,0.2-6.9L55.9,2.9C54.1,1,51.6,0,49,0s-5.1,1-7,3
	L1.3,45.6C0.4,46.6,0,47.8,0,49c0,1.3,0.5,2.6,1.5,3.6c2,1.9,5.1,1.8,6.9-0.2l35.7-37.6v97.9c0,2.7,2.2,4.9,4.9,4.9
	S53.9,115.4,53.9,112.7L53.9,112.7z"/>
</svg>
