<svg xmlns="http://www.w3.org/2000/svg" viewBox="0 0 512 512"><path d="M479.958 268.952h-24.299c-4.208-31.157-30.961-55.261-63.253-55.261a63.96 63.96 0 00-17.566 2.466c-3.778-17.205-14.584-32.447-30.048-41.577-4.755-2.808-10.886-1.228-13.695 3.526-2.808 4.756-1.229 10.888 3.527 13.695 13.382 7.901 21.695 22.451 21.696 37.9l-.004.101c-.006.169-.011.337-.013.507a10.001 10.001 0 0014.854 8.873 43.865 43.865 0 0121.248-5.492c21.228 0 38.98 15.164 42.996 35.228H48.205c7.31-9.377 18.719-15.257 31.035-15.257h.004c.183.006.365.012.549.013a10 10 0 009.856-12.157 59.457 59.457 0 01-1.41-12.811c0-32.565 26.494-59.06 59.061-59.06 13.753 0 27.143 4.833 37.701 13.609 4.245 3.53 10.551 2.948 14.082-1.298 3.53-4.248 2.949-10.552-1.299-14.083-14.142-11.754-32.071-18.228-50.484-18.228-43.594 0-79.061 35.466-79.061 79.06 0 1.982.076 3.97.228 5.957-9.783 1.837-18.865 6.129-26.467 12.273v-191.9c0-19.299 15.701-35 35-35h134c16.22 0 29.895 11.093 33.846 26.089C214.326 47.769 190 73.114 190 104.037c0 5.523 4.478 10 10 10h112c5.522 0 10-4.477 10-10 0-31.56-25.342-57.295-56.743-57.968C260.961 19.994 238.273.037 211 .037H77c-30.327 0-55 24.673-55 55v215.537c-12.763 4.224-22 16.261-22 30.421s9.237 26.197 22 30.421v85.787c0 39.609 32.225 71.833 71.833 71.833h8.581l-5.857 5.857c-3.905 3.905-3.905 10.237 0 14.142a9.968 9.968 0 007.071 2.929 9.972 9.972 0 007.071-2.929l20-20h250.602l20 20c1.953 1.953 4.512 2.929 7.071 2.929s5.118-.977 7.071-2.929c3.905-3.905 3.905-10.237 0-14.142l-5.857-5.857h8.581c39.608 0 71.833-32.224 71.833-71.833v-85.787c12.763-4.224 22-16.26 22-30.421 0-17.668-14.374-32.043-32.042-32.043zM264 66.037c17.494 0 32.265 11.882 36.665 28h-89.33c4.4-16.118 19.171-28 36.665-28h16zm206 351.165c0 28.581-23.252 51.833-51.833 51.833H93.833C65.252 469.037 42 445.783 42 417.202v-84.167h428v84.167zm9.958-104.165H32.042c-6.64 0-12.042-5.402-12.042-12.042s5.402-12.042 12.042-12.042h447.916c6.64 0 12.042 5.402 12.042 12.042 0 6.639-5.402 12.042-12.042 12.042z"/><path d="M310.251 428.217h-.188c-5.522 0-10 4.477-10 10s4.477 10 10 10h.188c5.522 0 10-4.477 10-10s-4.478-10-10-10zM437.086 382.564c-5.522 0-10 4.477-10 10 0 19.66-15.994 35.654-35.654 35.654h-45.765c-5.522 0-10 4.477-10 10s4.478 10 10 10h45.765c30.688 0 55.654-24.966 55.654-55.654 0-5.524-4.478-10-10-10zM301.805 165.235l-.998-4.899c-1.102-5.412-6.383-8.905-11.795-7.803-5.412 1.102-8.905 6.383-7.803 11.795l.998 4.899c.966 4.739 5.133 8.006 9.788 8.006.661 0 1.334-.066 2.007-.203 5.412-1.104 8.905-6.383 7.803-11.795zM294.814 130.939l-.999-4.899c-1.104-5.412-6.383-8.9-11.797-7.8-5.411 1.104-8.903 6.385-7.801 11.796l.999 4.899c.967 4.738 5.134 8.004 9.788 8.004a10.16 10.16 0 002.009-.204c5.411-1.104 8.903-6.385 7.801-11.796zM308.797 199.527l-.999-4.899c-1.104-5.411-6.385-8.901-11.797-7.8-5.411 1.104-8.903 6.385-7.801 11.796l.999 4.899c.967 4.738 5.134 8.004 9.788 8.004.662 0 1.335-.066 2.009-.204 5.411-1.104 8.903-6.385 7.801-11.796zM315.788 233.824l-.998-4.899c-1.103-5.412-6.391-8.904-11.795-7.803-5.412 1.103-8.905 6.383-7.803 11.795l.998 4.899c.966 4.738 5.134 8.006 9.788 8.006.662 0 1.334-.066 2.007-.203 5.412-1.103 8.905-6.383 7.803-11.795zM256 118.037c-5.522 0-10 4.477-10 10v5c0 5.523 4.478 10 10 10s10-4.477 10-10v-5c0-5.523-4.478-10-10-10zM256 223.037c-5.522 0-10 4.477-10 10v5c0 5.523 4.478 10 10 10s10-4.477 10-10v-5c0-5.523-4.478-10-10-10zM256 153.037c-5.522 0-10 4.477-10 10v5c0 5.523 4.478 10 10 10s10-4.477 10-10v-5c0-5.523-4.478-10-10-10zM256 188.037c-5.522 0-10 4.477-10 10v5c0 5.523 4.478 10 10 10s10-4.477 10-10v-5c0-5.523-4.478-10-10-10zM209.005 221.122c-5.409-1.102-10.692 2.39-11.795 7.803l-.998 4.899c-1.103 5.412 2.391 10.692 7.803 11.795.674.137 1.345.203 2.007.203 4.654 0 8.823-3.268 9.788-8.006l.998-4.899c1.103-5.412-2.391-10.692-7.803-11.795zM229.982 118.239c-5.407-1.102-10.692 2.389-11.797 7.8l-.999 4.899c-1.103 5.412 2.39 10.693 7.801 11.796.674.138 1.347.204 2.009.204 4.653 0 8.821-3.266 9.788-8.004l.999-4.899c1.103-5.412-2.39-10.693-7.801-11.796zM215.999 186.827c-5.406-1.104-10.692 2.389-11.797 7.8l-.999 4.899c-1.103 5.412 2.39 10.693 7.801 11.796.674.138 1.347.204 2.009.204 4.653 0 8.821-3.266 9.788-8.004l.999-4.899c1.103-5.411-2.39-10.692-7.801-11.796zM222.988 152.533c-5.408-1.101-10.692 2.391-11.795 7.803l-.998 4.899c-1.103 5.412 2.391 10.692 7.803 11.795.674.137 1.345.203 2.007.203 4.654 0 8.823-3.268 9.788-8.006l.998-4.899c1.103-5.412-2.391-10.692-7.803-11.795z"/></svg>