<svg height="640" viewBox="-63 0 479 480" width="640" xmlns="http://www.w3.org/2000/svg"><path d="M16.5 480h320V48h16V0H.5v48h16zm32-16h-16V48h16zm240 0h-224V48h224zm32 0h-16V48h16zM16.5 16h320v16h-320zm0 0"/><path d="M112.5 384c-13.254 0-24 10.746-24 24v16c0 13.254 10.746 24 24 24h128c13.254 0 24-10.746 24-24v-16c0-13.254-10.746-24-24-24zm136 24v16a8 8 0 01-8 8h-128a8 8 0 01-8-8v-16a8 8 0 018-8h128a8 8 0 018 8zm0 0M135.813 154.398l-6.727 36.106a7.997 7.997 0 0011.344 8.695l36.07-17.445 36.07 17.445a8.004 8.004 0 008.336-.844 8.007 8.007 0 003.008-7.82l-6.726-36.137 28.648-25.695a8.003 8.003 0 002.309-8.312 8.005 8.005 0 00-6.59-5.575l-40.16-5.367-17.848-33.265c-1.524-2.422-4.184-3.891-7.047-3.891s-5.523 1.469-7.047 3.89l-17.848 33.266-40.16 5.367a8.005 8.005 0 00-6.59 5.575 8.003 8.003 0 002.31 8.312zm21.968-29.597a8.005 8.005 0 005.992-4.153L176.5 96.922l12.727 23.726a8.005 8.005 0 005.992 4.153l27.015 3.605-19.07 17.114a8 8 0 00-2.527 7.425l4.656 24.957-25.305-12.238a8.007 8.007 0 00-6.976 0l-25.313 12.238 4.656-24.957a8 8 0 00-2.527-7.425l-19.07-17.114zm0 0M88.5 264a8 8 0 008-8v-24a8 8 0 00-16 0v24a8 8 0 008 8zm0 0"/></svg>